<svg width="900" height="980" viewBox="0 0 900 980" fill="none" xmlns="http://www.w3.org/2000/svg">
  <rect width="900" height="980" fill="#15191C"/>
  <circle cx="183" cy="196" r="170" fill="#B55242" fill-opacity="0.16"/>
  <path d="M236 980C282 830 342 710 445 606C523 528 623 463 716 422V980H236Z" fill="#23292F"/>
  <path d="M305 512C305 422 378 349 468 349C558 349 631 422 631 512V598H305V512Z" fill="#0A0C0D"/>
  <path d="M286 588H646L685 980H245L286 588Z" fill="#0F1417"/>
  <path d="M355 604C417 629 516 629 579 604L599 762C608 843 553 913 472 923C391 932 319 871 310 790L286 604H355Z" fill="#F0D7C1"/>
  <path d="M356 576C413 607 523 607 580 576L606 658C534 704 431 710 341 675L356 576Z" fill="#D7B196"/>
  <path d="M332 478C363 390 468 350 551 388C594 408 626 443 649 491L666 550L610 589C530 630 414 633 332 593L305 533L332 478Z" fill="#0C0E0F"/>
  <rect x="612" y="108" width="170" height="44" rx="22" fill="#8AA6B8" fill-opacity="0.75"/>
</svg>
