<svg width="900" height="980" viewBox="0 0 900 980" fill="none" xmlns="http://www.w3.org/2000/svg">
  <rect width="900" height="980" fill="#131618"/>
  <circle cx="701" cy="808" r="210" fill="#8AA6B8" fill-opacity="0.13"/>
  <path d="M174 980C247 754 373 624 466 550C563 472 647 433 746 392V980H174Z" fill="#20262B"/>
  <path d="M311 485C311 392 386 317 479 317C572 317 647 392 647 485V573H311V485Z" fill="#090B0C"/>
  <path d="M286 568H662L700 980H247L286 568Z" fill="#101416"/>
  <path d="M354 584C418 611 532 611 595 584L618 780C627 864 566 937 481 944C396 951 320 888 312 803L286 584H354Z" fill="#7A563D"/>
  <path d="M357 553C418 584 535 584 595 553L621 662C545 704 425 708 336 671L357 553Z" fill="#5D3D2D"/>
  <path d="M333 453C365 361 476 320 563 361C608 382 642 420 665 472L682 532L621 573C536 615 413 617 328 577L301 508L333 453Z" fill="#0A0C0D"/>
  <rect x="108" y="806" width="180" height="48" rx="24" fill="#B55242" fill-opacity="0.72"/>
</svg>
