<svg width="900" height="980" viewBox="0 0 900 980" fill="none" xmlns="http://www.w3.org/2000/svg">
  <rect width="900" height="980" fill="#14181B"/>
  <circle cx="725" cy="170" r="180" fill="#8AA6B8" fill-opacity="0.18"/>
  <path d="M154 856C236 708 316 606 411 530C498 460 584 411 698 372V980H154V856Z" fill="#21262B"/>
  <path d="M344 461C344 369 419 294 511 294C603 294 678 369 678 461V552H344V461Z" fill="#0B0D0E"/>
  <path d="M322 544H698L736 980H281L322 544Z" fill="#111417"/>
  <path d="M392 560C451 588 568 588 629 560L650 744C660 833 599 910 510 918C421 926 343 858 336 769L322 560H392Z" fill="#E6CCB2"/>
  <path d="M396 535C449 562 573 562 625 535L652 634C573 676 458 683 372 646L396 535Z" fill="#C9A487"/>
  <path d="M373 433C401 344 502 299 590 340C635 361 670 396 693 444L709 507L640 552C567 586 455 590 371 550L344 486L373 433Z" fill="#090B0C"/>
  <rect x="84" y="92" width="206" height="54" rx="27" fill="#B55242" fill-opacity="0.8"/>
</svg>
