<svg width="900" height="1125" viewBox="0 0 900 1125" fill="none" xmlns="http://www.w3.org/2000/svg">
  <rect width="900" height="1125" fill="#131618"/>
  <circle cx="695" cy="220" r="188" fill="#8AA6B8" fill-opacity="0.14"/>
  <path d="M160 1125C223 937 314 818 404 730C493 643 590 569 710 510V1125H160Z" fill="#20262B"/>
  <path d="M307 531C307 444 378 373 466 373C554 373 625 444 625 531V619H307V531Z" fill="#0B0D0E"/>
  <path d="M289 611H642L682 1125H247L289 611Z" fill="#111518"/>
  <path d="M354 626C414 655 520 655 579 626L608 838C617 908 567 973 496 980C425 986 360 933 349 863L289 626H354Z" fill="#E2C8B1"/>
  <path d="M355 600C412 630 522 630 579 600L606 688C532 732 429 735 342 699L355 600Z" fill="#CAAA91"/>
  <path d="M334 506C364 418 465 377 547 412C589 431 621 464 644 510L661 568L602 607C525 646 414 650 335 611L307 555L334 506Z" fill="#080A0B"/>
</svg>
